<?xml version="1.0" encoding="iso-8859-1"?>
<!-- Uploaded to: SVG Repo, www.svgrepo.com, Generator: SVG Repo Mixer Tools -->
<svg height="800px" width="800px" version="1.1" id="Layer_1" xmlns="http://www.w3.org/2000/svg" xmlns:xlink="http://www.w3.org/1999/xlink" 
	 viewBox="0 0 512.002 512.002" xml:space="preserve">
<path style="fill:#E6F4FF;" d="M495.305,511.998H16.697c-9.217,0-16.696-7.473-16.696-16.696V16.694
	c0-6.755,4.065-12.842,10.305-15.423c6.229-2.576,13.424-1.158,18.196,3.62L507.11,483.499c4.772,4.772,6.206,11.956,3.62,18.196
	S502.055,511.998,495.305,511.998z"/>
<path style="fill:#C2DFF6;" d="M4.893,507.107c3.022,3.022,7.196,4.892,11.804,4.892h478.609c6.749,0,12.837-4.065,15.423-10.305
	s1.152-13.424-3.62-18.196L267.805,244.194L4.893,507.107z"/>
<g>
	<path style="fill:#AA6100;" d="M94.61,400.694H0.001v33.391h77.913v77.913h33.391v-94.609
		C111.305,408.167,103.827,400.694,94.61,400.694z"/>
	<path style="fill:#AA6100;" d="M95.861,72.25c-9.55,14.13-23.147,25.569-39.73,32.395c-18.18,7.465-37.231,8.6-56.131,4.016v33.811
		c7.701,1.36,15.262,2.031,22.598,2.031c16.869,0,32.577-3.359,46.239-8.983c20.75-8.543,38.035-22.372,50.892-39.402L95.861,72.25z
		"/>
</g>
<g>
	<path style="fill:#884E00;" d="M111.305,417.389c0-4.611-1.87-8.784-4.892-11.804l-28.499,28.499v77.913h33.391V417.389z"/>
	<path style="fill:#884E00;" d="M415.778,392.167c-10.748,8.139-20.285,18.153-28.103,29.924
		c-15.328,23.085-24.506,54.933-18.387,89.907h34.21c-6.642-28.128,0.085-53.5,11.992-71.441
		c6.068-9.135,14.367-17.574,24.342-24.337L415.778,392.167z"/>
</g>
</svg>